<?xml version="1.0" encoding="UTF-8" standalone="no"?>
<!DOCTYPE svg PUBLIC "-//W3C//DTD SVG 1.1//EN"
 "http://www.w3.org/Graphics/SVG/1.1/DTD/svg11.dtd">
<!-- Generated by graphviz version 12.0.0 (0)
 -->
<!-- Pages: 1 -->
<svg width="943pt" height="467pt"
 viewBox="0.00 0.00 943.00 467.13" xmlns="http://www.w3.org/2000/svg" xmlns:xlink="http://www.w3.org/1999/xlink">
<g id="graph0" class="graph" transform="scale(1 1) rotate(0) translate(4 463.13)">
<polygon fill="white" stroke="none" points="-4,4 -4,-463.13 939,-463.13 939,4 -4,4"/>
<g id="clust1" class="cluster">
<title>clusterobs_idx (5206)</title>
<path fill="none" stroke="black" d="M618,-137.82C618,-137.82 915,-137.82 915,-137.82 921,-137.82 927,-143.82 927,-149.82 927,-149.82 927,-439.13 927,-439.13 927,-445.13 921,-451.13 915,-451.13 915,-451.13 618,-451.13 618,-451.13 612,-451.13 606,-445.13 606,-439.13 606,-439.13 606,-149.82 606,-149.82 606,-143.82 612,-137.82 618,-137.82"/>
<text text-anchor="middle" x="877.75" y="-145.02" font-family="Times,serif" font-size="14.00">obs_idx (5206)</text>
</g>
<g id="clust2" class="cluster">
<title>clusterparty choice (11)</title>
<path fill="none" stroke="black" d="M742,-8C742,-8 888,-8 888,-8 894,-8 900,-14 900,-20 900,-20 900,-117.82 900,-117.82 900,-123.82 894,-129.82 888,-129.82 888,-129.82 742,-129.82 742,-129.82 736,-129.82 730,-123.82 730,-117.82 730,-117.82 730,-20 730,-20 730,-14 736,-8 742,-8"/>
<text text-anchor="middle" x="845.5" y="-15.2" font-family="Times,serif" font-size="14.00">party choice (11)</text>
</g>
<g id="clust3" class="cluster">
<title>clusterage group (7) x party choice (11)</title>
<path fill="none" stroke="black" d="M538,-8C538,-8 710,-8 710,-8 716,-8 722,-14 722,-20 722,-20 722,-117.82 722,-117.82 722,-123.82 716,-129.82 710,-129.82 710,-129.82 538,-129.82 538,-129.82 532,-129.82 526,-123.82 526,-117.82 526,-117.82 526,-20 526,-20 526,-14 532,-8 538,-8"/>
<text text-anchor="middle" x="623.62" y="-15.2" font-family="Times,serif" font-size="14.00">age group (7) x party choice (11)</text>
</g>
<g id="clust4" class="cluster">
<title>clustereducation (3) x party choice (11)</title>
<path fill="none" stroke="black" d="M20,-235.82C20,-235.82 191,-235.82 191,-235.82 197,-235.82 203,-241.82 203,-247.82 203,-247.82 203,-345.63 203,-345.63 203,-351.63 197,-357.63 191,-357.63 191,-357.63 20,-357.63 20,-357.63 14,-357.63 8,-351.63 8,-345.63 8,-345.63 8,-247.82 8,-247.82 8,-241.82 14,-235.82 20,-235.82"/>
<text text-anchor="middle" x="105.38" y="-243.02" font-family="Times,serif" font-size="14.00">education (3) x party choice (11)</text>
</g>
<g id="clust5" class="cluster">
<title>clustergender (2) x party choice (11)</title>
<path fill="none" stroke="black" d="M223,-235.82C223,-235.82 378,-235.82 378,-235.82 384,-235.82 390,-241.82 390,-247.82 390,-247.82 390,-345.63 390,-345.63 390,-351.63 384,-357.63 378,-357.63 378,-357.63 223,-357.63 223,-357.63 217,-357.63 211,-351.63 211,-345.63 211,-345.63 211,-247.82 211,-247.82 211,-241.82 217,-235.82 223,-235.82"/>
<text text-anchor="middle" x="300.25" y="-243.02" font-family="Times,serif" font-size="14.00">gender (2) x party choice (11)</text>
</g>
<g id="clust6" class="cluster">
<title>clusternationality (2) x party choice (11)</title>
<path fill="none" stroke="black" d="M410,-235.82C410,-235.82 586,-235.82 586,-235.82 592,-235.82 598,-241.82 598,-247.82 598,-247.82 598,-345.63 598,-345.63 598,-351.63 592,-357.63 586,-357.63 586,-357.63 410,-357.63 410,-357.63 404,-357.63 398,-351.63 398,-345.63 398,-345.63 398,-247.82 398,-247.82 398,-241.82 404,-235.82 410,-235.82"/>
<text text-anchor="middle" x="497.75" y="-243.02" font-family="Times,serif" font-size="14.00">nationality (2) x party choice (11)</text>
</g>
<!-- age_gp -->
<g id="node1" class="node">
<title>age_gp</title>
<path fill="lightgrey" stroke="black" d="M906.5,-443.13C906.5,-443.13 875.5,-443.13 875.5,-443.13 869.5,-443.13 863.5,-437.13 863.5,-431.13 863.5,-431.13 863.5,-397.63 863.5,-397.63 863.5,-391.63 869.5,-385.63 875.5,-385.63 875.5,-385.63 906.5,-385.63 906.5,-385.63 912.5,-385.63 918.5,-391.63 918.5,-397.63 918.5,-397.63 918.5,-431.13 918.5,-431.13 918.5,-437.13 912.5,-443.13 906.5,-443.13"/>
<text text-anchor="middle" x="891" y="-425.83" font-family="Times,serif" font-size="14.00">age_gp</text>
<text text-anchor="middle" x="891" y="-409.33" font-family="Times,serif" font-size="14.00">~</text>
<text text-anchor="middle" x="891" y="-392.83" font-family="Times,serif" font-size="14.00">Data</text>
</g>
<!-- y -->
<g id="node6" class="node">
<title>y</title>
<ellipse fill="lightgrey" stroke="black" cx="696" cy="-308.98" rx="55.33" ry="40.66"/>
<text text-anchor="middle" x="696" y="-320.43" font-family="Times,serif" font-size="14.00">y</text>
<text text-anchor="middle" x="696" y="-303.93" font-family="Times,serif" font-size="14.00">~</text>
<text text-anchor="middle" x="696" y="-287.43" font-family="Times,serif" font-size="14.00">Categorical</text>
</g>
<!-- age_gp&#45;&gt;y -->
<g id="edge10" class="edge">
<title>age_gp&#45;&gt;y</title>
<path fill="none" stroke="black" d="M863.11,-390.98C860.42,-389.1 857.69,-387.29 855,-385.63 822.93,-365.95 784.94,-347.71 754.14,-334.07"/>
<polygon fill="black" stroke="black" points="755.94,-331.03 745.38,-330.23 753.13,-337.45 755.94,-331.03"/>
</g>
<!-- education -->
<g id="node2" class="node">
<title>education</title>
<path fill="lightgrey" stroke="black" d="M670.25,-443.13C670.25,-443.13 625.75,-443.13 625.75,-443.13 619.75,-443.13 613.75,-437.13 613.75,-431.13 613.75,-431.13 613.75,-397.63 613.75,-397.63 613.75,-391.63 619.75,-385.63 625.75,-385.63 625.75,-385.63 670.25,-385.63 670.25,-385.63 676.25,-385.63 682.25,-391.63 682.25,-397.63 682.25,-397.63 682.25,-431.13 682.25,-431.13 682.25,-437.13 676.25,-443.13 670.25,-443.13"/>
<text text-anchor="middle" x="648" y="-425.83" font-family="Times,serif" font-size="14.00">education</text>
<text text-anchor="middle" x="648" y="-409.33" font-family="Times,serif" font-size="14.00">~</text>
<text text-anchor="middle" x="648" y="-392.83" font-family="Times,serif" font-size="14.00">Data</text>
</g>
<!-- education&#45;&gt;y -->
<g id="edge11" class="edge">
<title>education&#45;&gt;y</title>
<path fill="none" stroke="black" d="M660.99,-385.4C664.9,-376.97 669.32,-367.46 673.65,-358.12"/>
<polygon fill="black" stroke="black" points="676.82,-359.61 677.86,-349.06 670.47,-356.66 676.82,-359.61"/>
</g>
<!-- α_education -->
<g id="node9" class="node">
<title>α_education</title>
<ellipse fill="none" stroke="black" cx="118" cy="-308.98" rx="77.07" ry="40.66"/>
<text text-anchor="middle" x="118" y="-320.43" font-family="Times,serif" font-size="14.00">α_education</text>
<text text-anchor="middle" x="118" y="-303.93" font-family="Times,serif" font-size="14.00">~</text>
<text text-anchor="middle" x="118" y="-287.43" font-family="Times,serif" font-size="14.00">ZeroSumNormal</text>
</g>
<!-- education&#45;&gt;α_education -->
<g id="edge5" class="edge">
<title>education&#45;&gt;α_education</title>
<path fill="none" stroke="black" d="M613.34,-413.25C537.7,-412.06 352.95,-404.17 207,-357.63 197.19,-354.51 187.19,-350.3 177.62,-345.68"/>
<polygon fill="black" stroke="black" points="179.27,-342.6 168.77,-341.22 176.12,-348.85 179.27,-342.6"/>
</g>
<!-- gender -->
<g id="node3" class="node">
<title>gender</title>
<path fill="lightgrey" stroke="black" d="M742,-443.13C742,-443.13 712,-443.13 712,-443.13 706,-443.13 700,-437.13 700,-431.13 700,-431.13 700,-397.63 700,-397.63 700,-391.63 706,-385.63 712,-385.63 712,-385.63 742,-385.63 742,-385.63 748,-385.63 754,-391.63 754,-397.63 754,-397.63 754,-431.13 754,-431.13 754,-437.13 748,-443.13 742,-443.13"/>
<text text-anchor="middle" x="727" y="-425.83" font-family="Times,serif" font-size="14.00">gender</text>
<text text-anchor="middle" x="727" y="-409.33" font-family="Times,serif" font-size="14.00">~</text>
<text text-anchor="middle" x="727" y="-392.83" font-family="Times,serif" font-size="14.00">Data</text>
</g>
<!-- gender&#45;&gt;y -->
<g id="edge13" class="edge">
<title>gender&#45;&gt;y</title>
<path fill="none" stroke="black" d="M718.61,-385.4C716.24,-377.49 713.59,-368.64 710.95,-359.86"/>
<polygon fill="black" stroke="black" points="714.31,-358.88 708.09,-350.3 707.61,-360.89 714.31,-358.88"/>
</g>
<!-- α_gender -->
<g id="node10" class="node">
<title>α_gender</title>
<ellipse fill="none" stroke="black" cx="305" cy="-308.98" rx="77.07" ry="40.66"/>
<text text-anchor="middle" x="305" y="-320.43" font-family="Times,serif" font-size="14.00">α_gender</text>
<text text-anchor="middle" x="305" y="-303.93" font-family="Times,serif" font-size="14.00">~</text>
<text text-anchor="middle" x="305" y="-287.43" font-family="Times,serif" font-size="14.00">ZeroSumNormal</text>
</g>
<!-- gender&#45;&gt;α_gender -->
<g id="edge7" class="edge">
<title>gender&#45;&gt;α_gender</title>
<path fill="none" stroke="black" d="M699.63,-389.93C696.83,-388.26 693.94,-386.79 691,-385.63 567.65,-337.03 520.94,-395.91 394,-357.63 383.91,-354.59 373.65,-350.35 363.86,-345.64"/>
<polygon fill="black" stroke="black" points="365.71,-342.65 355.2,-341.28 362.56,-348.9 365.71,-342.65"/>
</g>
<!-- party choice -->
<g id="node4" class="node">
<title>party choice</title>
<path fill="lightgrey" stroke="black" d="M684.38,-227.82C684.38,-227.82 625.62,-227.82 625.62,-227.82 619.62,-227.82 613.62,-221.82 613.62,-215.82 613.62,-215.82 613.62,-182.32 613.62,-182.32 613.62,-176.32 619.62,-170.32 625.62,-170.32 625.62,-170.32 684.38,-170.32 684.38,-170.32 690.38,-170.32 696.38,-176.32 696.38,-182.32 696.38,-182.32 696.38,-215.82 696.38,-215.82 696.38,-221.82 690.38,-227.82 684.38,-227.82"/>
<text text-anchor="middle" x="655" y="-210.52" font-family="Times,serif" font-size="14.00">party choice</text>
<text text-anchor="middle" x="655" y="-194.02" font-family="Times,serif" font-size="14.00">~</text>
<text text-anchor="middle" x="655" y="-177.52" font-family="Times,serif" font-size="14.00">Data</text>
</g>
<!-- α_baseline -->
<g id="node7" class="node">
<title>α_baseline</title>
<ellipse fill="none" stroke="black" cx="815" cy="-81.16" rx="77.07" ry="40.66"/>
<text text-anchor="middle" x="815" y="-92.61" font-family="Times,serif" font-size="14.00">α_baseline</text>
<text text-anchor="middle" x="815" y="-76.11" font-family="Times,serif" font-size="14.00">~</text>
<text text-anchor="middle" x="815" y="-59.61" font-family="Times,serif" font-size="14.00">ZeroSumNormal</text>
</g>
<!-- party choice&#45;&gt;α_baseline -->
<g id="edge2" class="edge">
<title>party choice&#45;&gt;α_baseline</title>
<path fill="none" stroke="black" d="M693.73,-170.01C713.88,-155.41 738.84,-137.33 760.87,-121.37"/>
<polygon fill="black" stroke="black" points="762.84,-124.27 768.88,-115.57 758.73,-118.6 762.84,-124.27"/>
</g>
<!-- α_age_group -->
<g id="node8" class="node">
<title>α_age_group</title>
<ellipse fill="none" stroke="black" cx="637" cy="-81.16" rx="77.07" ry="40.66"/>
<text text-anchor="middle" x="637" y="-92.61" font-family="Times,serif" font-size="14.00">α_age_group</text>
<text text-anchor="middle" x="637" y="-76.11" font-family="Times,serif" font-size="14.00">~</text>
<text text-anchor="middle" x="637" y="-59.61" font-family="Times,serif" font-size="14.00">ZeroSumNormal</text>
</g>
<!-- party choice&#45;&gt;α_age_group -->
<g id="edge3" class="edge">
<title>party choice&#45;&gt;α_age_group</title>
<path fill="none" stroke="black" d="M650.64,-170.01C648.9,-158.82 646.85,-145.57 644.87,-132.81"/>
<polygon fill="black" stroke="black" points="648.38,-132.62 643.39,-123.28 641.46,-133.7 648.38,-132.62"/>
</g>
<!-- party choice&#45;&gt;α_education -->
<g id="edge4" class="edge">
<title>party choice&#45;&gt;α_education</title>
<path fill="none" stroke="black" d="M613.38,-200.26C516.8,-201.21 280.17,-206.55 207,-235.82 190.33,-242.48 174.36,-253.41 160.66,-264.78"/>
<polygon fill="black" stroke="black" points="158.42,-262.09 153.15,-271.27 163,-267.38 158.42,-262.09"/>
</g>
<!-- party choice&#45;&gt;α_gender -->
<g id="edge6" class="edge">
<title>party choice&#45;&gt;α_gender</title>
<path fill="none" stroke="black" d="M613.32,-203.03C549.91,-208 432.51,-219.14 394,-235.82 377.68,-242.89 361.9,-253.82 348.28,-265.06"/>
<polygon fill="black" stroke="black" points="346.12,-262.3 340.8,-271.46 350.67,-267.61 346.12,-262.3"/>
</g>
<!-- α_nationality -->
<g id="node11" class="node">
<title>α_nationality</title>
<ellipse fill="none" stroke="black" cx="513" cy="-308.98" rx="77.07" ry="40.66"/>
<text text-anchor="middle" x="513" y="-320.43" font-family="Times,serif" font-size="14.00">α_nationality</text>
<text text-anchor="middle" x="513" y="-303.93" font-family="Times,serif" font-size="14.00">~</text>
<text text-anchor="middle" x="513" y="-287.43" font-family="Times,serif" font-size="14.00">ZeroSumNormal</text>
</g>
<!-- party choice&#45;&gt;α_nationality -->
<g id="edge8" class="edge">
<title>party choice&#45;&gt;α_nationality</title>
<path fill="none" stroke="black" d="M613.38,-227.63C609.5,-230.35 605.66,-233.11 602,-235.82 588.75,-245.63 574.75,-256.65 561.88,-267.07"/>
<polygon fill="black" stroke="black" points="559.89,-264.18 554.34,-273.21 564.31,-269.6 559.89,-264.18"/>
</g>
<!-- nationality -->
<g id="node5" class="node">
<title>nationality</title>
<path fill="lightgrey" stroke="black" d="M833.88,-443.13C833.88,-443.13 784.12,-443.13 784.12,-443.13 778.12,-443.13 772.12,-437.13 772.12,-431.13 772.12,-431.13 772.12,-397.63 772.12,-397.63 772.12,-391.63 778.12,-385.63 784.12,-385.63 784.12,-385.63 833.88,-385.63 833.88,-385.63 839.88,-385.63 845.88,-391.63 845.88,-397.63 845.88,-397.63 845.88,-431.13 845.88,-431.13 845.88,-437.13 839.88,-443.13 833.88,-443.13"/>
<text text-anchor="middle" x="809" y="-425.83" font-family="Times,serif" font-size="14.00">nationality</text>
<text text-anchor="middle" x="809" y="-409.33" font-family="Times,serif" font-size="14.00">~</text>
<text text-anchor="middle" x="809" y="-392.83" font-family="Times,serif" font-size="14.00">Data</text>
</g>
<!-- nationality&#45;&gt;y -->
<g id="edge18" class="edge">
<title>nationality&#45;&gt;y</title>
<path fill="none" stroke="black" d="M778.42,-385.4C766.08,-374.11 751.63,-360.89 738.31,-348.69"/>
<polygon fill="black" stroke="black" points="741.05,-346.45 731.31,-342.28 736.32,-351.62 741.05,-346.45"/>
</g>
<!-- nationality&#45;&gt;α_nationality -->
<g id="edge9" class="edge">
<title>nationality&#45;&gt;α_nationality</title>
<path fill="none" stroke="black" d="M771.66,-389.35C768.79,-387.97 765.88,-386.71 763,-385.63 694.96,-360.22 670.67,-381.3 602,-357.63 592.39,-354.32 582.56,-350.06 573.11,-345.46"/>
<polygon fill="black" stroke="black" points="574.88,-342.43 564.38,-341.03 571.72,-348.68 574.88,-342.43"/>
</g>
<!-- y&#45;&gt;party choice -->
<g id="edge1" class="edge">
<title>y&#45;&gt;party choice</title>
<path fill="none" stroke="black" d="M681.31,-269.32C677.57,-259.48 673.55,-248.9 669.81,-239.04"/>
<polygon fill="black" stroke="black" points="673.09,-237.82 666.26,-229.71 666.54,-240.3 673.09,-237.82"/>
</g>
<!-- α_baseline&#45;&gt;y -->
<g id="edge15" class="edge">
<title>α_baseline&#45;&gt;y</title>
<path fill="none" stroke="black" d="M794.72,-120.64C774.35,-159.3 742.91,-218.96 721,-260.53"/>
<polygon fill="black" stroke="black" points="717.92,-258.87 716.36,-269.35 724.11,-262.13 717.92,-258.87"/>
</g>
<!-- α_age_group&#45;&gt;y -->
<g id="edge16" class="edge">
<title>α_age_group&#45;&gt;y</title>
<path fill="none" stroke="black" d="M685.97,-112.95C693.68,-120.12 700.56,-128.44 705,-137.82 722.77,-175.33 718.36,-222.84 710.74,-258.12"/>
<polygon fill="black" stroke="black" points="707.38,-257.11 708.52,-267.64 714.2,-258.69 707.38,-257.11"/>
</g>
<!-- α_education&#45;&gt;y -->
<g id="edge14" class="edge">
<title>α_education&#45;&gt;y</title>
<path fill="none" stroke="black" d="M160.26,-343.44C176.66,-354.73 196.23,-365.85 216,-371.63 256.21,-383.39 552.67,-382.94 593,-371.63 612.54,-366.16 632.06,-355.84 648.76,-345.13"/>
<polygon fill="black" stroke="black" points="650.61,-348.11 656.99,-339.66 646.73,-342.28 650.61,-348.11"/>
</g>
<!-- α_gender&#45;&gt;y -->
<g id="edge12" class="edge">
<title>α_gender&#45;&gt;y</title>
<path fill="none" stroke="black" d="M347.26,-343.44C363.66,-354.73 383.23,-365.85 403,-371.63 443.53,-383.48 552.34,-383.03 593,-371.63 612.54,-366.16 632.06,-355.84 648.76,-345.13"/>
<polygon fill="black" stroke="black" points="650.61,-348.11 656.99,-339.66 646.73,-342.28 650.61,-348.11"/>
</g>
<!-- α_nationality&#45;&gt;y -->
<g id="edge17" class="edge">
<title>α_nationality&#45;&gt;y</title>
<path fill="none" stroke="black" d="M590.56,-308.98C603.41,-308.98 616.26,-308.98 629.11,-308.98"/>
<polygon fill="black" stroke="black" points="628.88,-312.48 638.88,-308.98 628.88,-305.48 628.88,-312.48"/>
</g>
</g>
</svg>
