<?xml version="1.0" encoding="UTF-8" standalone="no"?>
<!DOCTYPE svg PUBLIC "-//W3C//DTD SVG 1.1//EN"
 "http://www.w3.org/Graphics/SVG/1.1/DTD/svg11.dtd">
<!-- Generated by graphviz version 12.0.0 (0)
 -->
<!-- Pages: 1 -->
<svg width="873pt" height="361pt"
 viewBox="0.00 0.00 873.00 361.13" xmlns="http://www.w3.org/2000/svg" xmlns:xlink="http://www.w3.org/1999/xlink">
<g id="graph0" class="graph" transform="scale(1 1) rotate(0) translate(4 357.13)">
<polygon fill="white" stroke="none" points="-4,4 -4,-357.13 869,-357.13 869,4 -4,4"/>
<g id="clust1" class="cluster">
<title>clusterobs_idx (5206)</title>
<path fill="none" stroke="black" d="M20,-8C20,-8 250,-8 250,-8 256,-8 262,-14 262,-20 262,-20 262,-321.23 262,-321.23 262,-327.23 256,-333.23 250,-333.23 250,-333.23 20,-333.23 20,-333.23 14,-333.23 8,-327.23 8,-321.23 8,-321.23 8,-20 8,-20 8,-14 14,-8 20,-8"/>
<text text-anchor="middle" x="212.75" y="-15.2" font-family="Times,serif" font-size="14.00">obs_idx (5206)</text>
</g>
<g id="clust2" class="cluster">
<title>clusterparty_choice (11)</title>
<path fill="none" stroke="black" d="M282,-223.32C282,-223.32 428,-223.32 428,-223.32 434,-223.32 440,-229.32 440,-235.32 440,-235.32 440,-333.13 440,-333.13 440,-339.13 434,-345.13 428,-345.13 428,-345.13 282,-345.13 282,-345.13 276,-345.13 270,-339.13 270,-333.13 270,-333.13 270,-235.32 270,-235.32 270,-229.32 276,-223.32 282,-223.32"/>
<text text-anchor="middle" x="384" y="-230.52" font-family="Times,serif" font-size="14.00">party_choice (11)</text>
</g>
<g id="clust3" class="cluster">
<title>clusternationality (2) x party_choice (11)</title>
<path fill="none" stroke="black" d="M460,-223.32C460,-223.32 639,-223.32 639,-223.32 645,-223.32 651,-229.32 651,-235.32 651,-235.32 651,-333.13 651,-333.13 651,-339.13 645,-345.13 639,-345.13 639,-345.13 460,-345.13 460,-345.13 454,-345.13 448,-339.13 448,-333.13 448,-333.13 448,-235.32 448,-235.32 448,-229.32 454,-223.32 460,-223.32"/>
<text text-anchor="middle" x="549.25" y="-230.52" font-family="Times,serif" font-size="14.00">nationality (2) x party_choice (11)</text>
</g>
<g id="clust4" class="cluster">
<title>clustereducation (3) x party_choice (11)</title>
<path fill="none" stroke="black" d="M671,-223.32C671,-223.32 845,-223.32 845,-223.32 851,-223.32 857,-229.32 857,-235.32 857,-235.32 857,-333.13 857,-333.13 857,-339.13 851,-345.13 845,-345.13 845,-345.13 671,-345.13 671,-345.13 665,-345.13 659,-339.13 659,-333.13 659,-333.13 659,-235.32 659,-235.32 659,-229.32 665,-223.32 671,-223.32"/>
<text text-anchor="middle" x="757.88" y="-230.52" font-family="Times,serif" font-size="14.00">education (3) x party_choice (11)</text>
</g>
<!-- y -->
<g id="node1" class="node">
<title>y</title>
<ellipse fill="lightgrey" stroke="black" cx="199" cy="-174.66" rx="55.33" ry="40.66"/>
<text text-anchor="middle" x="199" y="-186.11" font-family="Times,serif" font-size="14.00">y</text>
<text text-anchor="middle" x="199" y="-169.61" font-family="Times,serif" font-size="14.00">~</text>
<text text-anchor="middle" x="199" y="-153.11" font-family="Times,serif" font-size="14.00">Categorical</text>
</g>
<!-- party_choice_index -->
<g id="node3" class="node">
<title>party_choice_index</title>
<path fill="lightgrey" stroke="black" d="M242.25,-98C242.25,-98 143.75,-98 143.75,-98 137.75,-98 131.75,-92 131.75,-86 131.75,-86 131.75,-52.5 131.75,-52.5 131.75,-46.5 137.75,-40.5 143.75,-40.5 143.75,-40.5 242.25,-40.5 242.25,-40.5 248.25,-40.5 254.25,-46.5 254.25,-52.5 254.25,-52.5 254.25,-86 254.25,-86 254.25,-92 248.25,-98 242.25,-98"/>
<text text-anchor="middle" x="193" y="-80.7" font-family="Times,serif" font-size="14.00">party_choice_index</text>
<text text-anchor="middle" x="193" y="-64.2" font-family="Times,serif" font-size="14.00">~</text>
<text text-anchor="middle" x="193" y="-47.7" font-family="Times,serif" font-size="14.00">Data</text>
</g>
<!-- y&#45;&gt;party_choice_index -->
<g id="edge1" class="edge">
<title>y&#45;&gt;party_choice_index</title>
<path fill="none" stroke="black" d="M196.68,-133.68C196.22,-125.83 195.75,-117.6 195.29,-109.76"/>
<polygon fill="black" stroke="black" points="198.79,-109.57 194.71,-99.79 191.8,-109.97 198.79,-109.57"/>
</g>
<!-- eductation_index -->
<g id="node2" class="node">
<title>eductation_index</title>
<path fill="lightgrey" stroke="black" d="M113.5,-325.23C113.5,-325.23 28.5,-325.23 28.5,-325.23 22.5,-325.23 16.5,-319.23 16.5,-313.23 16.5,-313.23 16.5,-279.73 16.5,-279.73 16.5,-273.73 22.5,-267.73 28.5,-267.73 28.5,-267.73 113.5,-267.73 113.5,-267.73 119.5,-267.73 125.5,-273.73 125.5,-279.73 125.5,-279.73 125.5,-313.23 125.5,-313.23 125.5,-319.23 119.5,-325.23 113.5,-325.23"/>
<text text-anchor="middle" x="71" y="-307.93" font-family="Times,serif" font-size="14.00">eductation_index</text>
<text text-anchor="middle" x="71" y="-291.43" font-family="Times,serif" font-size="14.00">~</text>
<text text-anchor="middle" x="71" y="-274.93" font-family="Times,serif" font-size="14.00">Data</text>
</g>
<!-- eductation_index&#45;&gt;y -->
<g id="edge2" class="edge">
<title>eductation_index&#45;&gt;y</title>
<path fill="none" stroke="black" d="M93.46,-267.52C105.21,-253.61 120.2,-236.91 135,-223.32 139.77,-218.94 144.94,-214.57 150.19,-210.35"/>
<polygon fill="black" stroke="black" points="152.14,-213.26 157.87,-204.35 147.84,-207.75 152.14,-213.26"/>
</g>
<!-- nationality_index -->
<g id="node4" class="node">
<title>nationality_index</title>
<path fill="lightgrey" stroke="black" d="M242.25,-325.23C242.25,-325.23 155.75,-325.23 155.75,-325.23 149.75,-325.23 143.75,-319.23 143.75,-313.23 143.75,-313.23 143.75,-279.73 143.75,-279.73 143.75,-273.73 149.75,-267.73 155.75,-267.73 155.75,-267.73 242.25,-267.73 242.25,-267.73 248.25,-267.73 254.25,-273.73 254.25,-279.73 254.25,-279.73 254.25,-313.23 254.25,-313.23 254.25,-319.23 248.25,-325.23 242.25,-325.23"/>
<text text-anchor="middle" x="199" y="-307.93" font-family="Times,serif" font-size="14.00">nationality_index</text>
<text text-anchor="middle" x="199" y="-291.43" font-family="Times,serif" font-size="14.00">~</text>
<text text-anchor="middle" x="199" y="-274.93" font-family="Times,serif" font-size="14.00">Data</text>
</g>
<!-- nationality_index&#45;&gt;y -->
<g id="edge5" class="edge">
<title>nationality_index&#45;&gt;y</title>
<path fill="none" stroke="black" d="M199,-267.38C199,-255.28 199,-240.73 199,-226.83"/>
<polygon fill="black" stroke="black" points="202.5,-226.88 199,-216.88 195.5,-226.88 202.5,-226.88"/>
</g>
<!-- α -->
<g id="node5" class="node">
<title>α</title>
<ellipse fill="none" stroke="black" cx="355" cy="-296.48" rx="77.07" ry="40.66"/>
<text text-anchor="middle" x="355" y="-307.93" font-family="Times,serif" font-size="14.00">α</text>
<text text-anchor="middle" x="355" y="-291.43" font-family="Times,serif" font-size="14.00">~</text>
<text text-anchor="middle" x="355" y="-274.93" font-family="Times,serif" font-size="14.00">ZeroSumNormal</text>
</g>
<!-- α&#45;&gt;y -->
<g id="edge6" class="edge">
<title>α&#45;&gt;y</title>
<path fill="none" stroke="black" d="M314.22,-261.52C299.22,-249.27 282,-235.47 266,-223.32 260.12,-218.85 253.88,-214.24 247.67,-209.73"/>
<polygon fill="black" stroke="black" points="250.01,-207.11 239.85,-204.11 245.92,-212.79 250.01,-207.11"/>
</g>
<!-- α_nationality -->
<g id="node6" class="node">
<title>α_nationality</title>
<ellipse fill="none" stroke="black" cx="533" cy="-296.48" rx="77.07" ry="40.66"/>
<text text-anchor="middle" x="533" y="-307.93" font-family="Times,serif" font-size="14.00">α_nationality</text>
<text text-anchor="middle" x="533" y="-291.43" font-family="Times,serif" font-size="14.00">~</text>
<text text-anchor="middle" x="533" y="-274.93" font-family="Times,serif" font-size="14.00">ZeroSumNormal</text>
</g>
<!-- α_nationality&#45;&gt;y -->
<g id="edge4" class="edge">
<title>α_nationality&#45;&gt;y</title>
<path fill="none" stroke="black" d="M497.67,-260.12C482.35,-246.67 463.47,-232.4 444,-223.32 387.24,-196.82 316.45,-185.05 265.58,-179.83"/>
<polygon fill="black" stroke="black" points="266.2,-176.37 255.91,-178.9 265.52,-183.34 266.2,-176.37"/>
</g>
<!-- α_education -->
<g id="node7" class="node">
<title>α_education</title>
<ellipse fill="none" stroke="black" cx="744" cy="-296.48" rx="77.07" ry="40.66"/>
<text text-anchor="middle" x="744" y="-307.93" font-family="Times,serif" font-size="14.00">α_education</text>
<text text-anchor="middle" x="744" y="-291.43" font-family="Times,serif" font-size="14.00">~</text>
<text text-anchor="middle" x="744" y="-274.93" font-family="Times,serif" font-size="14.00">ZeroSumNormal</text>
</g>
<!-- α_education&#45;&gt;y -->
<g id="edge3" class="edge">
<title>α_education&#45;&gt;y</title>
<path fill="none" stroke="black" d="M709.48,-259.63C694.14,-245.93 675.03,-231.61 655,-223.32 586.28,-194.85 374.88,-182.55 265.74,-177.98"/>
<polygon fill="black" stroke="black" points="266.19,-174.5 256.06,-177.59 265.91,-181.49 266.19,-174.5"/>
</g>
</g>
</svg>
